<svg xmlns="http://www.w3.org/2000/svg" viewBox="0 0 942.82 700"><defs><style>.cls-1{fill:#c1c5c8;}.cls-2{fill:#001446;}.cls-3{fill:#fff;}.cls-4{fill:#ba0c2f;}.cls-5{fill:#00b2e3;}</style></defs><g id="Layer_2" data-name="Layer 2"><g id="Primary"><path class="cls-1" d="M134.55,562.65l-1.21-.6a88.87,88.87,0,0,1-47.59-99.17,88.47,88.47,0,0,1,47.59-60.47l1.34-.66,13.47-5.42c5.72-94.17-1.25-167.79-19.8-213.34-1.79,7.95-4.17,13.1-7.57,16.06,1.13,21.21.92,29.95-4.84,36a15.15,15.15,0,0,1-2.57,2.18c2.06,10.79,2.5,16.91-2,22.35a14.09,14.09,0,0,1-10.93,5.18c-4.79,0-9-2.27-12.64-6.76-6.09-7.56-16.57-26.83-17.29-51a86.45,86.45,0,0,1,6.5-35.6,22.13,22.13,0,0,1-2.61.12,17,17,0,0,1-5-.73c-15.63,10.79-23.31,15.53-30.62,15.53a15.53,15.53,0,0,1-6.49-1.4c-7.43,6.77-12,10.17-18.12,10.17a14.22,14.22,0,0,1-11.6-6c-3-4.21-3.42-9.28-1.35-15.06,3.08-8.62,12.87-25.72,30.51-38.71a13.17,13.17,0,0,1-2-2.43,68.38,68.38,0,0,1-11.57,1.41c-10.8,0-14.23-7.47-15-9.76-1-3-2.5-10.55,6.06-17.33,7.41-5.87,26.72-15.8,52.11-15.8a91.68,91.68,0,0,1,44,11.23c7.91-49.12,50.49-69.16,66.59-72.44a21.7,21.7,0,0,1,4.41-.49,14.46,14.46,0,0,1,13.92,9.5,15.32,15.32,0,0,1,.9,4.29,925.33,925.33,0,0,1,560.85,0c.14-.58.32-1.17.53-1.78a14.46,14.46,0,0,1,13.93-9.5,22.36,22.36,0,0,1,4.4.48C787,36,829.57,56.06,837.47,105.17a91.68,91.68,0,0,1,44-11.23c25.39,0,44.71,9.93,52.12,15.81,8.55,6.77,7.08,14.37,6.06,17.32-.8,2.29-4.24,9.76-15,9.76A68.37,68.37,0,0,1,913,135.42a14,14,0,0,1-2,2.44c17.63,13,27.41,30.08,30.5,38.7,2.07,5.78,1.61,10.85-1.35,15.05a14.19,14.19,0,0,1-11.6,6c-6.11,0-10.69-3.39-18.12-10.16a15.48,15.48,0,0,1-6.48,1.4h0c-7.31,0-15-4.74-30.62-15.54a17,17,0,0,1-5,.74,20.3,20.3,0,0,1-2.6-.13,86.46,86.46,0,0,1,6.49,35.61c-.71,24.18-11.2,43.45-17.29,51-3.6,4.48-7.85,6.75-12.64,6.75a14.09,14.09,0,0,1-10.92-5.18c-4.46-5.44-4-11.56-2-22.35a15.55,15.55,0,0,1-2.57-2.18c-5.76-6.08-6-14.81-4.84-36-3.4-3-5.78-8.11-7.57-16.07C796,230.78,789,303.79,794.57,397.14l11.48,4.56,1.42.69a88.45,88.45,0,0,1,47.62,60.53,89.54,89.54,0,0,1,2.13,19.31,88.34,88.34,0,0,1-49.73,79.83l-1.28.63L468.33,700Z"/><path class="cls-2" d="M927.79,181.14c-4.12-11.55-24.52-43.95-65-46.52,1.17-1,.67-2.12-2.29-3.3-17.06-6.81,57.74,5.28,36.51-7.87s39.57,6.78,27.15-3c-11.33-9-58.84-28.59-100.54,10.88a40.58,40.58,0,0,0,.54-7.76c1.09-54.37-43.14-74.65-57-77.48-15.52-3.17,38.88,30.51,15.15,22.74s33.67,41.67,17.48,33c-12.34-6.6,6.78,21.82,16.61,35.76-20.38-12.07-38.68-14.91-54.18-13V61.48a911.58,911.58,0,0,0-583.14,0v63.07c-15.49-1.91-33.78.92-54.14,13,9.82-13.94,28.94-42.36,16.61-35.76-16.2,8.67,41.22-40.78,17.48-33S189.75,42.87,174.23,46c-13.84,2.83-58.06,23.11-57,77.48a39.69,39.69,0,0,0,.53,7.76C76.1,91.81,28.59,111.42,17.26,120.4c-12.42,9.83,48.38-10.11,27.15,3s53.56,1.06,36.51,7.87c-3,1.18-3.46,2.29-2.3,3.3-40.45,2.57-60.85,35-65,46.52C8.31,196.05,49.35,147,38.29,169.36s46-27.44,35.15-12.63c-10.06,13.7,44.86-14.9,44.89-14.83C63,186.58,88.14,239.75,98,252s-10.44-48.31,2.86-27.17.69-53.57,7.62-36.56c6.09,14.95,9.73-32.75,10.52-44.53,1.66,4.42,54,44.38,42.66,249.27l59.69-11.7L146,411.51l0,0-6.7,2.7-.9.44a75.5,75.5,0,0,0-42.12,67.62,75.83,75.83,0,0,0,42.12,67.62l.81.4L467.49,685.32l332.28-135,.86-.42a75.36,75.36,0,0,0,0-135.26l-1-.46-19.1-7.59h0L719.64,382.2l60.1,10.45c-11.21-204.56,41-244.46,42.69-248.88.79,11.78,4.42,59.48,10.51,44.53,6.93-17-5.68,57.7,7.62,36.56s-7.06,39.52,2.86,27.17,35-65.45-20.31-110.13c0-.07,54.95,28.53,44.89,14.83-10.88-14.81,46.2,35,35.14,12.63S933.13,196.05,927.79,181.14ZM179.13,285.69c-11.89-131.14-52.75-141.8-53.39-142.87,15.57,3.76,52.76,12.06,41.55,2.65-5.67-4.77,1.87-1.94,11.84,1.88Zm583.14.33V147.37c10-3.83,17.55-6.67,11.88-1.9-11.22,9.41,26,1.11,41.55-2.65C815.05,143.89,774.12,154.57,762.27,286Z"/><path class="cls-3" d="M264,214.39q-8.67,0-13.74-3.28a17.29,17.29,0,0,1-7.09-9.11,41.55,41.55,0,0,1-2-13.55V160.39a42.89,42.89,0,0,1,2-13.93,16.86,16.86,0,0,1,7.09-9q5.07-3.18,13.74-3.18c5.6,0,10,.93,13.17,2.79A15.38,15.38,0,0,1,283.9,145a32.94,32.94,0,0,1,2,11.86v6.56H270.44v-7.33a40.34,40.34,0,0,0-.29-5.06,7,7,0,0,0-1.59-3.86c-.86-1-2.36-1.49-4.48-1.49s-3.66.51-4.63,1.54a7.4,7.4,0,0,0-1.83,4,35,35,0,0,0-.39,5.45v35.49a27.67,27.67,0,0,0,.53,5.73,6.7,6.7,0,0,0,2,3.76,6.31,6.31,0,0,0,4.29,1.31c2.06,0,3.52-.5,4.39-1.5a7.49,7.49,0,0,0,1.64-4,40.64,40.64,0,0,0,.33-5.3V184.5h15.43V191a34.91,34.91,0,0,1-1.93,12.1,16.23,16.23,0,0,1-6.65,8.29Q272.56,214.4,264,214.39Z"/><path class="cls-3" d="M291.75,213.33l15.14-78.11h17.65l15,78.11H324.83L322,196.17H309.69l-3,17.16Zm19.39-26.9h9.35l-4.73-31.54Z"/><path class="cls-3" d="M346.91,213.33V135.22h15.91v67.31h18.32v10.8Z"/><path class="cls-3" d="M388.28,213.33V135.22h15.81v78.11Z"/><path class="cls-3" d="M416.05,213.33V135.22h33V146H432v21.12h14.47v11.09H432v35.1Z"/><path class="cls-3" d="M478.82,214.39q-8.58,0-13.59-3.08a17.21,17.21,0,0,1-7.19-8.83,39,39,0,0,1-2.17-13.74V159.62A38.59,38.59,0,0,1,458,145.93a16.71,16.71,0,0,1,7.19-8.68q5-3,13.59-3t13.75,3A16.89,16.89,0,0,1,499.8,146,38.28,38.28,0,0,1,502,159.62v29.12a39,39,0,0,1-2.17,13.74,17.14,17.14,0,0,1-7.23,8.83Q487.5,214.39,478.82,214.39Zm0-11.47a6.36,6.36,0,0,0,4.54-1.4,7.13,7.13,0,0,0,1.93-3.76,25.52,25.52,0,0,0,.48-5.07V155.76a24.63,24.63,0,0,0-.48-5,7,7,0,0,0-1.93-3.71,6.32,6.32,0,0,0-4.54-1.4,6,6,0,0,0-4.33,1.4,6.91,6.91,0,0,0-1.93,3.71,23.94,23.94,0,0,0-.48,5v36.93a28.09,28.09,0,0,0,.43,5.07,6.8,6.8,0,0,0,1.88,3.76A6.16,6.16,0,0,0,478.82,202.92Z"/><path class="cls-3" d="M512.58,213.33V135.22h20.24A45.22,45.22,0,0,1,546.37,137a15.8,15.8,0,0,1,8.68,6.31c2,3,3,7.2,3,12.54a40.21,40.21,0,0,1-.82,8.53,16.5,16.5,0,0,1-2.89,6.46,14.28,14.28,0,0,1-5.84,4.39l10.8,38.09H543.05l-9-35.39h-5.6v35.39Zm15.9-44.84h4.63a12.49,12.49,0,0,0,6.08-1.25,6.88,6.88,0,0,0,3.13-3.81,18.88,18.88,0,0,0,.92-6.32q0-5.4-2-8.24T533.89,146h-5.41Z"/><path class="cls-3" d="M568.5,213.33V135.22h11.09L597,175.91V135.22h13.11v78.11h-10.6l-17.36-43.2v43.2Z"/><path class="cls-3" d="M622.12,213.33V135.22h15.81v78.11Z"/><path class="cls-3" d="M646,213.33l15.14-78.11h17.65l15,78.11H679.1l-2.79-17.16H664l-3,17.16Zm19.38-26.9h9.35L670,154.89Z"/><path class="cls-1" d="M311.06,268.16l4.54-5.34a17.17,17.17,0,0,0,11.42,5c4.94,0,7.65-2.24,7.65-5.66,0-3.61-2.83-4.77-6.81-6.46l-6-2.6c-4.32-1.8-8.87-5.22-8.87-11.63,0-7,6.17-12.37,14.73-12.37a19.23,19.23,0,0,1,13.53,5.6l-4,4.93a14.15,14.15,0,0,0-9.53-3.77c-4.16,0-6.87,1.95-6.87,5.15,0,3.45,3.34,4.73,7,6.22l5.92,2.48c5.22,2.17,8.86,5.47,8.86,11.83,0,7.11-5.9,13-15.75,13A22.62,22.62,0,0,1,311.06,268.16Z"/><path class="cls-1" d="M346.25,229.92h8l3.81,22.16c.71,4.67,1.46,9.33,2.17,14h.27c.91-4.67,1.88-9.37,2.84-14l5.4-22.16h6.76l5.39,22.16c1,4.55,1.93,9.29,2.9,14h.27c.71-4.71,1.41-9.41,2.12-14L390,229.92h7.46L389,273.78h-9.63l-5.45-23.1q-1.08-5.1-1.93-10.09h-.27q-.9,5-2,10.09l-5.32,23.1H355Z"/><path class="cls-1" d="M404.29,229.92h7.78v43.86h-7.78Z"/><path class="cls-1" d="M423.21,229.92H432l7.75,21.43c1,2.79,1.85,5.75,2.82,8.62h.27c1-2.87,1.79-5.83,2.76-8.62l7.59-21.43H462v43.86h-7.14V253.72c0-4.06.61-9.89,1-14h-.27L452.05,250l-7.22,19.71h-4.61L433,250l-3.48-10.2h-.27c.37,4.07,1,9.9,1,14v20.06h-7Z"/><path class="cls-1" d="M473.18,229.92H482l7.76,21.43c1,2.79,1.85,5.75,2.82,8.62h.26c1-2.87,1.8-5.83,2.77-8.62l7.59-21.43H512v43.86h-7.14V253.72c0-4.06.62-9.89,1-14h-.27L502,250l-7.22,19.71h-4.62L483,250l-3.49-10.2h-.27c.38,4.07,1,9.9,1,14v20.06h-7Z"/><path class="cls-1" d="M523.16,229.92h7.78v43.86h-7.78Z"/><path class="cls-1" d="M542.08,229.92h8l13.63,24.65,4.54,9.37h.26c-.37-4.54-1-10.09-1-15V229.92h7.41v43.86h-8l-13.63-24.69-4.53-9.33h-.27c.37,4.65,1,9.93,1,14.81v19.21h-7.4Z"/><path class="cls-1" d="M583.78,252c0-14.36,9.09-22.89,20.76-22.89a18,18,0,0,1,13.26,5.56l-4.16,5a11.91,11.91,0,0,0-8.86-3.81c-7.78,0-13,6-13,15.89s4.64,16.07,13.44,16.07a9.83,9.83,0,0,0,6.25-1.93v-9.47H603.2V250h15.24v19.34c-2.92,3-8,5.21-14,5.21C592.6,274.59,583.78,266.51,583.78,252Z"/><path class="cls-1" d="M376.13,64.38a19.42,19.42,0,0,0-5.48-8.89,9.55,9.55,0,0,0-6.31-2.18,18.52,18.52,0,0,0-8,1.76c-9.31,3.93-25.44,16.24-25.44,30.3,0,10.55,14.37,16.13,21.82,21.92a2.82,2.82,0,0,1,.1,4.34c-1.13,1.14-3.2,1.66-5.48,1.66-6,0-12.82-5.17-16.85-8.48a12.77,12.77,0,0,0-8.07-2.59,14.37,14.37,0,0,0-3.2.31c-1.45.52-2.17,1.66-.73,3.41,8.17,9.41,18.2,13.65,25.75,13.65,6.2,0,11.27-2.17,14-5.27s4-5.89,4-8.27a6.71,6.71,0,0,0-3.1-5.27c-4-2.9-18.2-8.79-17.89-15.62.52-11.89,23.16-27.09,27-24.3,1.45,1-1.34,5.59-3.93,9.41-3.41,4.55-4.76,8.48-4.76,10.76a7.64,7.64,0,0,0,2.49,5.58c2,2.07,3.1,1.24,4-.41A127,127,0,0,1,373,75C374.58,72.75,377.16,68.62,376.13,64.38Z"/><path class="cls-1" d="M616.64,100.88c-.93-1.45-2.38-1.55-3.41.41-3.72,6.93-9.1,13.65-12.62,13.65-1.34,0-2.06-1.34-2.06-3.51,0-3.83,3.51-10.65,6.82-15.93,3.31-5.79,5.17-9.1,5.17-11.37,0-3.93-2.79-7.55-5.79-7.55-3.72,0-8.69,3.41-13.13,7.55a13.68,13.68,0,0,0,.1-2.07,9.35,9.35,0,0,0-1.34-4.86c-1-1.86-2.59-2-3.93,0-6.41,9.62-14.37,24.09-16.34,29.88-.08.26-.14.5-.2.75-3,4.11-6.48,7-9,7-1.45,0-2.28-1.76-2.28-4.45a17.15,17.15,0,0,1,.73-4.45c1.86-5.27,6.92-12.3,11.37-17.47a5.81,5.81,0,0,0,1.76-3.93c0-2.58-1.76-5.38-3.1-7.13s-2.69-.93-4.35.1a30.76,30.76,0,0,1-9,4.34,31.15,31.15,0,0,0,2-8.68c0-2.28-.82-3.62-3-3.62-3.51.1-10.44,7.65-10.44,13.13a5.3,5.3,0,0,0,2.9,4.55c-5.48,12.61-16.24,27.5-26.58,27.5-2.89,0-4.75-3.1-4.75-7.85a21.81,21.81,0,0,1,.93-6.1,12.52,12.52,0,0,0,7.34,2.27c4.55,0,8.48-2.59,11.48-6.31,2.79-3.62,4.34-7.86,4.34-10.85a7.37,7.37,0,0,0-.93-3.42,24.29,24.29,0,0,0-6.41-5.37,6.6,6.6,0,0,0-3.52-.83c-5.89,0-14.37,5.79-19.75,16.34a29.65,29.65,0,0,0-2.79,8.41.75.75,0,0,0-.1.17c-3.11,6.31-8.59,13.65-12.21,13.65-1.44,0-2-1.35-2-3.52a16.8,16.8,0,0,1,1.34-6.1c1.14-2.48,3.73-6.82,9.41-17a8.48,8.48,0,0,0,1.14-4.34c0-4-3-7.24-6-7.24-2,0-5.58,1.24-8.68,3.52,1-1.45,7.44-11.07,9.51-14.48,2.48-4.34,3.72-8.17,3.72-11a9.64,9.64,0,0,0-.82-3.93c-.93-2.07-2.49-2.48-4.14-.41-8.38,10.75-28.85,45.39-33,56.25-.19.5-.36,1-.5,1.43-2.93,4.12-6.16,6.94-8.81,6.94-1.76,0-2.79-2.17-2.79-5.27a19.62,19.62,0,0,1,1.86-7.75c3.62-7.86,9.51-18.1,13.44-24.82a31.13,31.13,0,0,1,6.83-.31c2.48.31,3.2-.93,2.17-2.79a7.46,7.46,0,0,0-5.69-3.31,18.21,18.21,0,0,0,1.65-7.14,9.31,9.31,0,0,0-1.13-4.23c-1.14-2-2.38-2.07-3.93.2C465.78,63,463.61,66.45,460.4,72a59.05,59.05,0,0,1-7.44.21c-2.38-.11-3.41.93-2,3.1.83,1.24,2.69,2.38,5.9,2.79a216.1,216.1,0,0,0-10.14,20.68c-.43,1-.78,2-1.07,2.92-3.74,6.77-9.65,13.21-13.09,13.21-1.35,0-2-1-2-2.89a15,15,0,0,1,1.66-6.11c2.48-6,7.44-12.82,9.41-17.06a14.46,14.46,0,0,0,1.65-6.61,8.33,8.33,0,0,0-1.76-5.38c-1.34-1.55-3-1.24-4.24.62-3.82,5.48-6,11.68-12.3,21.61-5.28,8.58-10.55,15.1-13.44,15.1-.93,0-1.25-1-1.25-2.48a16.25,16.25,0,0,1,1.14-5.38,104.49,104.49,0,0,1,7.86-14.68c2.17-3.83,3.41-6.93,3.41-9.41a8.27,8.27,0,0,0-1.86-5q-2.17-2.47-4,.31L413,83.2c-3.2,4.65-8,9.2-12.61,10,.41-6.31-1.24-9-3.31-11.17-.52-.52-1-.93-1.55-1.55-2.28-3-4.34-4-7.86-3.83-6.41.52-13.23,6.72-17.06,13.34a30.41,30.41,0,0,0-4.24,14.37,14.85,14.85,0,0,0,2.79,9.1,12.49,12.49,0,0,0,10.24,5.28c8.68,0,17.27-11.48,20.06-21.41a19,19,0,0,0,6.31-1.13,54,54,0,0,0-3,7,22.93,22.93,0,0,0-1.24,7.13c0,4.45,2,8.38,7.34,8.38,5.17,0,9.92-3.42,13.34-7.14.62,4.34,3.62,7.55,9.51,7.55,4.81,0,10.15-2.92,13.78-6.91a10,10,0,0,0,9.38,6.7,16.17,16.17,0,0,0,9.23-3.26,8.43,8.43,0,0,0,1.42,2.23c1.24,1.55,2.79,1.24,3.62-.62a138.66,138.66,0,0,1,9.72-19.13c5.48-8.89,15.3-15.41,16.23-15.41.73,0-.82,2.49-2.79,5.9-3.93,6.1-9,15.09-9,21.61,0,5.37,3.1,8.79,9.92,8.79,5.5,0,11.06-3.57,14.5-8.21,2.09,4.8,6.71,8,13.53,7.9,12.61-.21,23.67-12.83,32.15-30.51a20.66,20.66,0,0,0,7.65-1.75c-4.13,4.86-8.16,10.54-9.92,16.13a17.79,17.79,0,0,0-1,5.68c0,6.1,3.62,10.65,10.14,10.65a18.34,18.34,0,0,0,9.58-3.09,7.52,7.52,0,0,0,1.59,2.27c1.65,1.65,3,1,3.72-.62,4.24-9.31,8.89-19.44,14.58-25.44,5.68-6.41,10.75-9.31,11.68-9.31.72,0-.93,2.69-3.1,6.1-4,6.41-8.79,15.93-8.79,21.51,0,5.38,3,8.89,9.93,8.89,6.2,0,13.75-5.48,16.64-11.16C617.57,105.32,617.47,102.12,616.64,100.88Zm-97.2-5.79c4.24-8.38,11.27-14.37,13.14-12.93,1,.83-1.35,5.9-4.24,9.62-2.07,2.79-4.86,5.79-7.55,5.79a5.09,5.09,0,0,1-2.28-.62A16.43,16.43,0,0,1,519.44,95.09Zm-131.83,7.55c-3.93,7-8.38,10.75-11,10.75-1.66,0-2.17-1.45-2.17-4.34,0-3.83,1.55-9.52,4.23-14.38a36.81,36.81,0,0,1,6-8A17.59,17.59,0,0,0,391,95,43.46,43.46,0,0,1,387.61,102.64Zm5.06-11.17c-1.13-1.34-1.65-4-1.65-5.89,0-1.66.93-2.49,1.55-2.49s1.55.62,1.55,2.18A17.19,17.19,0,0,1,392.67,91.47Z"/><path class="cls-4" d="M311.1,295.49l-37.49-2.86,12.8-16.74a.75.75,0,0,0-.07-1,.75.75,0,0,0-1-.06l-16.74,12.79-2.86-37.48a.75.75,0,0,0-1.5,0l-2.85,37.48-16.74-12.79a.74.74,0,0,0-.46-.16.71.71,0,0,0-.53.22.75.75,0,0,0-.07,1l12.8,16.74-37.49,2.86a.75.75,0,0,0,0,1.5l37.49,2.85-12.8,16.75a.76.76,0,0,0,.6,1.21.74.74,0,0,0,.46-.16l16.74-12.8,2.85,37.49a.75.75,0,0,0,1.5,0l2.86-37.49,16.74,12.8a.74.74,0,0,0,.46.16.79.79,0,0,0,.53-.22.75.75,0,0,0,.07-1l-12.8-16.75L311.1,297a.75.75,0,0,0,0-1.5Z"/><path class="cls-5" d="M814.42,471.76A48.09,48.09,0,0,0,788.66,439L467.49,311.41,150.43,439a48.16,48.16,0,0,0-23.92,59.92,124.77,124.77,0,0,0,132.43-4.43,124.84,124.84,0,0,0,139.55,0h0a124.84,124.84,0,0,0,139.55,0,124.83,124.83,0,0,0,139.54,0h0A124.79,124.79,0,0,0,813.22,497a54.31,54.31,0,0,0,2.35-14.79A48.54,48.54,0,0,0,814.42,471.76Z"/><path class="cls-5" d="M126.51,498.93h0v0Z"/><path class="cls-3" d="M486.59,375c1.55.66,3.61-1.89,4.26-3.43a3,3,0,0,0-5.59-2.39C484.6,370.77,485.05,374.38,486.59,375Z"/><path class="cls-3" d="M515.08,350.65c-5.76.6-9.82,27.15-9.82,27.15s13.42-16.18,15.36-18.55S520.84,350,515.08,350.65Z"/><path class="cls-3" d="M587.58,420.86c.24-5.78-6.7-7.06-8.94-5s-17.54,16.51-17.54,16.51S587.34,426.65,587.58,420.86Z"/><path class="cls-3" d="M522.55,503.37A61.7,61.7,0,1,0,413.27,503,124.67,124.67,0,0,0,522.55,503.37Z"/><path class="cls-3" d="M567.79,452.94a3.79,3.79,0,1,0,5.35-.06A3.78,3.78,0,0,0,567.79,452.94Z"/><path class="cls-3" d="M341.36,465.16a5.43,5.43,0,1,0-7.68.08A5.43,5.43,0,0,0,341.36,465.16Z"/><path class="cls-3" d="M372.47,436s-15.89-13.76-18.22-15.75-9.21-.42-8.72,5.36S372.47,436,372.47,436Z"/><path class="cls-3" d="M456.83,353.49a2.77,2.77,0,1,0-3.92,0A2.78,2.78,0,0,0,456.83,353.49Z"/><path class="cls-3" d="M428.23,381.28s-5.18-26.35-11-26.71-7.2,6.55-5.17,8.83S428.23,381.28,428.23,381.28Z"/><path class="cls-3" d="M382,444.54c3.82,5,5.73,12.54,2.18,17.79-3.76,5.51-14.92,9-23.1,9.1a4.28,4.28,0,0,0,.08,8.55c7.06-.06,17.19,2.44,22,7.19a10.8,10.8,0,0,1,1.24,1.44c2.8,3.93,2.46,9.22.52,13.77q5.1-2.58,10-5.65a20.07,20.07,0,0,0-3.59-13.08c-2.4-3.38-6.33-6.17-10.74-8.14a25.71,25.71,0,0,0,10.58-8.38c5-7.29,3.91-16.21.38-23.23,7.39-2.61,14.3-8.33,15.78-17a25.75,25.75,0,0,0-1.84-13.36,25.6,25.6,0,0,0,13.4,1.55c8.66-1.65,14.23-8.7,16.7-16.15,7.08,3.36,16,4.21,23.2-.89A25.81,25.81,0,0,0,467,387.26a29.15,29.15,0,0,0,5.73,8.4,20.32,20.32,0,0,0,2.65,2.17c7.3,5,16.21,3.93,23.22.41a26.86,26.86,0,0,0,6.4,10.21A20,20,0,0,0,515.69,414a25.94,25.94,0,0,0,13.36-1.84,25.68,25.68,0,0,0-1.56,13.39,20,20,0,0,0,5.78,10.53,27,27,0,0,0,10.37,6.18c-3.37,7.08-4.22,16,.91,23.18,2.39,3.39,6.32,6.18,10.74,8.15A25.79,25.79,0,0,0,544.71,482a20.43,20.43,0,0,0-3.09,14.83,125.1,125.1,0,0,0,11.3,6.26c-3.09-4.95-4.36-11.55-1.15-16.28,3.76-5.51,14.92-9,23.1-9.11a4.27,4.27,0,0,0-.08-8.54c-7.06.05-17.18-2.45-22-7.19a11.17,11.17,0,0,1-1.26-1.45c-3.71-5.21-1.92-12.78,1.83-17.88a5.66,5.66,0,0,0,.43-.42,4.29,4.29,0,0,0,1-3.72l0-.11a4.28,4.28,0,0,0-3.18-3.28A4.34,4.34,0,0,0,550,435a19.44,19.44,0,0,1-10.77-5,11.28,11.28,0,0,1-3.36-6c-1.25-6.54,4.17-16.9,9.9-22.76a4.28,4.28,0,0,0-.06-6h0a4.29,4.29,0,0,0-6,0c-5.76,5.84-16,11.47-22.58,10.37a11.36,11.36,0,0,1-6.09-3.24,19.45,19.45,0,0,1-5.26-10.65,3.85,3.85,0,0,0,0-.76,4.29,4.29,0,0,0-2.1-3.33l-.12-.07a4.32,4.32,0,0,0-4.49.1,4.45,4.45,0,0,0-1.07,1c-5,3.8-12.52,5.7-17.77,2.13a10,10,0,0,1-1.47-1.21c-4.86-4.76-7.55-14.82-7.62-21.87a4.28,4.28,0,0,0-8.55.07c.05,8.21-3.23,19.45-8.63,23.3-5.17,3.67-12.72,1.92-17.83-1.78a4.18,4.18,0,0,0-.64-.62,4.25,4.25,0,0,0-4-.75l-.13.05a4.25,4.25,0,0,0-2.92,3.28,4.45,4.45,0,0,0,0,1.36c-.88,6.25-4.83,12.89-11.05,14.08-6.53,1.25-16.9-4.17-22.75-9.9a4.27,4.27,0,0,0-6,6.1c5.84,5.77,11.47,16,10.36,22.57-1.06,6.28-7.66,10.38-13.9,11.35a5.08,5.08,0,0,0-.78,0A4.28,4.28,0,0,0,381,439l-.06.11a4.27,4.27,0,0,0,.15,4.45A4.06,4.06,0,0,0,382,444.54Z"/><path class="cls-4" d="M459.2,560.67c3.84,8.16,4.23,16.88,1.06,24a5.13,5.13,0,0,1-4.95,2.65c-21.56-2.55-43.11-4.94-64.62-6.3-2.18-.13-2.92-2-2.09-4.45a36,36,0,0,0-1.13-25.48c-1.06-2.57-.47-4.37,1.71-4.12,21.56,2.44,43.16,5.92,64.76,9.56A8.24,8.24,0,0,1,459.2,560.67Zm78.56,8.49c-21.56-2.61-43.17-6.19-64.77-9.84-2.2-.37-2.79,1.16-1.75,3.49,3.46,7.64,3.81,15.7,1,22.43-.85,2.07-.11,3.79,2.08,4,21.56,2.56,43.11,5.05,64.62,6.57,1.83.13,4.19-.93,5-2.47,3.2-6.34,2.87-13.87-.92-20.82A7.82,7.82,0,0,0,537.76,569.16Zm171.88-11.6a8.7,8.7,0,0,0-.85-.87c-.88-.77-3.28-.7-5.07,0A264.1,264.1,0,0,1,640,571.36c-2.16.23-2.77,1.49-1.76,3a14.87,14.87,0,0,1,2.45,11.23Zm-339.45-12.2a406.06,406.06,0,0,0-64.37-.91c-2.18.16-2.74,2.31-1.68,5A44.9,44.9,0,0,1,305.41,578c-.82,2.9-.07,4.89,2.1,4.62a402.86,402.86,0,0,1,64.23-2.35,5.58,5.58,0,0,0,4.91-3.48,37,37,0,0,0-1.2-27.25A7.4,7.4,0,0,0,370.19,545.36Zm251,27.32a424.47,424.47,0,0,1-64.41-1.75c-2.19-.21-2.79,1.14-1.76,3.12,3.4,6.44,3.7,13.39.86,19.38-.86,1.83-.14,3.29,2,3.39a435.14,435.14,0,0,0,57.22-.85l12.72-5.17a16,16,0,0,0-1.52-16.06C625.43,573.46,623,572.58,621.17,572.68ZM287,546.05A262.85,262.85,0,0,0,231.88,559l59.5,24.48a7.9,7.9,0,0,0,2.16-3.41,45.8,45.8,0,0,0-1.35-30.46C291.25,547.33,288.78,545.82,287,546.05Z"/></g></g></svg>
